<?xml version="1.0" encoding="UTF-8" standalone="no"?>
<!-- Generator: Adobe Illustrator 19.0.0, SVG Export Plug-In . SVG Version: 6.00 Build 0)  -->

<svg
   xmlns:dc="http://purl.org/dc/elements/1.1/"
   xmlns:cc="http://creativecommons.org/ns#"
   xmlns:rdf="http://www.w3.org/1999/02/22-rdf-syntax-ns#"
   xmlns:svg="http://www.w3.org/2000/svg"
   xmlns="http://www.w3.org/2000/svg"
   xmlns:sodipodi="http://sodipodi.sourceforge.net/DTD/sodipodi-0.dtd"
   xmlns:inkscape="http://www.inkscape.org/namespaces/inkscape"
   version="1.1"
   id="Layer_1"
   x="0px"
   y="0px"
   viewBox="0 0 512 512"
   style="enable-background:new 0 0 512 512;"
   xml:space="preserve"
   sodipodi:docname="search_pet.svg"
   inkscape:version="0.92.1 r15371"><metadata
   id="metadata4560"><rdf:RDF><cc:Work
       rdf:about=""><dc:format>image/svg+xml</dc:format><dc:type
         rdf:resource="http://purl.org/dc/dcmitype/StillImage" /><dc:title></dc:title></cc:Work></rdf:RDF></metadata><defs
   id="defs4558" /><sodipodi:namedview
   pagecolor="#ffffff"
   bordercolor="#666666"
   borderopacity="1"
   objecttolerance="10"
   gridtolerance="10"
   guidetolerance="10"
   inkscape:pageopacity="0"
   inkscape:pageshadow="2"
   inkscape:window-width="1366"
   inkscape:window-height="705"
   id="namedview4556"
   showgrid="false"
   inkscape:zoom="1.4418349"
   inkscape:cx="152.99905"
   inkscape:cy="238.95488"
   inkscape:window-x="-8"
   inkscape:window-y="-8"
   inkscape:window-maximized="1"
   inkscape:current-layer="Layer_1"
   inkscape:measure-start="0,0"
   inkscape:measure-end="0,0" />
<circle
   style="fill:#31bafd"
   cx="257.37341"
   cy="256"
   r="256"
   id="circle4485" />











<g
   id="g4525">
</g>
<g
   id="g4527">
</g>
<g
   id="g4529">
</g>
<g
   id="g4531">
</g>
<g
   id="g4533">
</g>
<g
   id="g4535">
</g>
<g
   id="g4537">
</g>
<g
   id="g4539">
</g>
<g
   id="g4541">
</g>
<g
   id="g4543">
</g>
<g
   id="g4545">
</g>
<g
   id="g4547">
</g>
<g
   id="g4549">
</g>
<g
   id="g4551">
</g>
<g
   id="g4553">
</g>
<g
   id="g4943"
   transform="matrix(0.83593823,0,0,0.80946014,162.02502,161.10969)"
   style="fill:#a65f00;fill-opacity:1"><g
     id="g4886"
     style="fill:#a65f00;fill-opacity:1">
	<path
   id="path4882"
   d="m 226.717,42.806 c 0.836,-2.203 0.536,-4.677 -0.803,-6.616 -1.339,-1.939 -3.545,-3.098 -5.901,-3.098 h -18.277 c 0,-18.087 -14.663,-32.75 -32.75,-32.75 -7.883,0 -15.114,2.787 -20.766,7.427 4.89,1.517 9.139,4.822 11.762,9.368 16.779,29.073 16.779,37.85 16.779,41.597 0,19.083 -15.525,34.608 -34.608,34.608 -6.309,0 -12.223,-1.705 -17.321,-4.666 l -70.285,31.528 c -21.206,9.513 -33.489,54.439 -33.715,77.644 -5.135,-9.869 -9.013,-49.949 1.492,-75.118 1.596,-3.822 -0.21,-8.215 -4.032,-9.81 -3.822,-1.597 -8.215,0.209 -9.81,4.032 -13.57,32.511 -8.358,53.497 -1.598,65.377 4.393,7.719 9.893,12.643 13.948,15.519 4.614,16.694 19.929,28.993 38.07,28.993 h 55 c 5.522,0 10,-4.477 10,-10 0,-5.522 -4.478,-10 -10,-10 h -20.67 c 5.18,-9.125 5.251,-15.668 5.288,-20.702 0.011,-1.438 0.839,-16.495 -13.133,-26.927 -3.254,-2.431 -4.032,-7.137 -1.522,-10.497 2.479,-3.316 7.179,-4.001 10.497,-1.522 10.412,7.773 17.167,19.567 18.744,32.327 l 25.796,-11.707 v 49.028 c 0,5.523 4.478,10 10,10 h 20.083 c 5.523,0 10,-4.477 10,-10 0,-5.522 -4.477,-10 -10,-10 h -10.083 v -49.379 c 11.497,-8.723 18.5,-22.436 18.5,-37.256 v -3.365 -26.286 c 0,-8.443 6.845,-15.287 15.287,-15.287 h 8.566 c 7.914,0 15.004,-4.894 17.811,-12.293 z m -47.564,-6.964 c -2.348,0 -4.25,-1.902 -4.25,-4.25 0,-2.348 1.902,-4.25 4.25,-4.25 2.348,0 4.25,1.902 4.25,4.25 0,2.348 -1.903,4.25 -4.25,4.25 z"
   inkscape:connector-curvature="0"
   style="fill:#000000;fill-opacity:1"
   sodipodi:nodetypes="csscsccssccccccccsssscccccccsssssccscsssccsssss" />
	<path
   id="path4884"
   d="m 142.153,78.342 c 10.83,0 19.608,-8.779 19.608,-19.608 0,-7.322 -8.965,-24.039 -14.77,-34.099 -0.998,-1.729 -2.838,-2.797 -4.834,-2.799 -1.996,0 -3.841,1.064 -4.838,2.793 -5.807,10.06 -14.774,26.781 -14.774,34.104 -0.001,10.829 8.779,19.609 19.608,19.609 z"
   inkscape:connector-curvature="0"
   style="fill:#a65f00;fill-opacity:1" />
</g><g
     id="g4888"
     style="fill:#a65f00;fill-opacity:1">
</g><g
     id="g4890"
     style="fill:#a65f00;fill-opacity:1">
</g><g
     id="g4892"
     style="fill:#a65f00;fill-opacity:1">
</g><g
     id="g4894"
     style="fill:#a65f00;fill-opacity:1">
</g><g
     id="g4896"
     style="fill:#a65f00;fill-opacity:1">
</g><g
     id="g4898"
     style="fill:#a65f00;fill-opacity:1">
</g><g
     id="g4900"
     style="fill:#a65f00;fill-opacity:1">
</g><g
     id="g4902"
     style="fill:#a65f00;fill-opacity:1">
</g><g
     id="g4904"
     style="fill:#a65f00;fill-opacity:1">
</g><g
     id="g4906"
     style="fill:#a65f00;fill-opacity:1">
</g><g
     id="g4908"
     style="fill:#a65f00;fill-opacity:1">
</g><g
     id="g4910"
     style="fill:#a65f00;fill-opacity:1">
</g><g
     id="g4912"
     style="fill:#a65f00;fill-opacity:1">
</g><g
     id="g4914"
     style="fill:#a65f00;fill-opacity:1">
</g><g
     id="g4916"
     style="fill:#a65f00;fill-opacity:1">
</g></g><g
   id="g4955"
   transform="matrix(-0.40904778,1.1830368,-1.2135863,-0.39875086,616.16199,86.114391)">
	<g
   id="g4953">
		<path
   inkscape:connector-curvature="0"
   d="m 338.752,99.482 c -65.965,-65.974 -173.306,-65.974 -239.277,0 -65.967,65.964 -65.967,173.305 0,239.269 63.708,63.712 165.99,65.879 232.342,6.544 l 13.413,13.413 c -3.34,8.56 -1.59,18.623 5.311,25.528 l 70.782,70.782 c 9.305,9.31 24.397,9.305 33.696,0 9.31,-9.299 9.31,-24.387 0,-33.696 L 384.242,350.55 c -6.905,-6.899 -16.988,-8.65 -25.533,-5.311 l -13.413,-13.423 c 59.34,-66.351 57.167,-168.628 -6.544,-232.334 z M 119.698,318.539 c -54.819,-54.819 -54.819,-144.015 0,-198.834 54.819,-54.83 144.017,-54.819 198.836,0 54.819,54.819 54.819,144.02 0,198.839 -54.819,54.819 -144.017,54.814 -198.836,-0.005 z"
   id="path4949"
   style="fill:#ff9200;fill-opacity:1" />
		
	</g>
</g></svg>