<?xml version="1.0" encoding="UTF-8" standalone="no"?>
<!-- Generator: Adobe Illustrator 19.0.0, SVG Export Plug-In . SVG Version: 6.00 Build 0)  -->

<svg
   xmlns:dc="http://purl.org/dc/elements/1.1/"
   xmlns:cc="http://creativecommons.org/ns#"
   xmlns:rdf="http://www.w3.org/1999/02/22-rdf-syntax-ns#"
   xmlns:svg="http://www.w3.org/2000/svg"
   xmlns="http://www.w3.org/2000/svg"
   xmlns:sodipodi="http://sodipodi.sourceforge.net/DTD/sodipodi-0.dtd"
   xmlns:inkscape="http://www.inkscape.org/namespaces/inkscape"
   version="1.1"
   id="Layer_1"
   x="0px"
   y="0px"
   viewBox="0 0 512 512"
   style="enable-background:new 0 0 512 512;"
   xml:space="preserve"
   sodipodi:docname="search_pet_in_good_hands.svg"
   inkscape:version="0.92.1 r15371"
   inkscape:export-filename="F:\Education\논문\Design\icons\my-icons-collection3\png\found_pet.png"
   inkscape:export-xdpi="27"
   inkscape:export-ydpi="27"><metadata
   id="metadata4560"><rdf:RDF><cc:Work
       rdf:about=""><dc:format>image/svg+xml</dc:format><dc:type
         rdf:resource="http://purl.org/dc/dcmitype/StillImage" /><dc:title></dc:title></cc:Work></rdf:RDF></metadata><defs
   id="defs4558" /><sodipodi:namedview
   pagecolor="#ffffff"
   bordercolor="#666666"
   borderopacity="1"
   objecttolerance="10"
   gridtolerance="10"
   guidetolerance="10"
   inkscape:pageopacity="0"
   inkscape:pageshadow="2"
   inkscape:window-width="1366"
   inkscape:window-height="705"
   id="namedview4556"
   showgrid="false"
   inkscape:zoom="1.0195312"
   inkscape:cx="88.766275"
   inkscape:cy="256"
   inkscape:window-x="-8"
   inkscape:window-y="-8"
   inkscape:window-maximized="1"
   inkscape:current-layer="Layer_1"
   showguides="false" />
<circle
   style="fill:#31BAFD;"
   cx="256"
   cy="256"
   r="256"
   id="circle4485" />











<g
   id="g4525">
</g>
<g
   id="g4527">
</g>
<g
   id="g4529">
</g>
<g
   id="g4531">
</g>
<g
   id="g4533">
</g>
<g
   id="g4535">
</g>
<g
   id="g4537">
</g>
<g
   id="g4539">
</g>
<g
   id="g4541">
</g>
<g
   id="g4543">
</g>
<g
   id="g4545">
</g>
<g
   id="g4547">
</g>
<g
   id="g4549">
</g>
<g
   id="g4551">
</g>
<g
   id="g4553">
</g>
<g
   id="g4666"
   transform="matrix(0.53579385,0,0,0.57033253,118.84093,109.99601)"><g
     id="g4573">
	<g
   id="g4571">
		<circle
   id="circle4569"
   r="39.209999"
   cy="70.568001"
   cx="114.454" />
	</g>
</g><g
     id="g4579">
	<g
   id="g4577">
		<path
   id="path4575"
   d="m 271.346,106.532 c -7.029,-6.657 -17.987,-6.853 -25.261,-0.661 -8.532,7.264 -44.571,37.947 -49.83,42.423 l -69.172,-19.815 28.997,0.69 c -4.749,-4.651 -11.237,-7.535 -18.409,-7.567 l -37.753,-0.115 c -4.63,-0.014 -9.209,0.958 -13.434,2.853 L 11.182,158.119 C 2.374,162.067 -2.049,172.014 0.921,181.2 l 26.874,83.149 c 3.213,9.941 13.876,15.397 23.82,12.183 9.942,-3.213 15.397,-13.878 12.183,-23.82 L 42.142,185.704 74.404,171.239 c 0.849,114.413 0.904,102.829 0.485,105.452 L 61.928,357.789 24.76,449.387 c -4.714,11.618 0.882,24.858 12.501,29.573 11.619,4.714 24.859,-0.884 29.573,-12.501 l 38.141,-93.996 c 0.646,-1.593 1.11,-3.255 1.382,-4.954 l 12.253,-76.665 19.932,77.555 1.877,89.996 c 0.258,12.375 10.37,22.23 22.689,22.229 0.16,0 0.322,-0.001 0.483,-0.004 12.536,-0.261 22.486,-10.635 22.225,-23.171 l -1.932,-92.626 c -0.037,-1.748 -0.275,-3.485 -0.709,-5.178 l -19.68,-76.572 0.37,-91.405 -44.485,-25.857 75.035,22.606 c 0.006,0.001 0.011,0.002 0.017,0.004 6.189,1.765 12.765,0.209 17.458,-3.786 l 58.725,-49.957 c 8.494,-7.229 8.982,-20.326 0.731,-28.146 z"
   inkscape:connector-curvature="0" />
	</g>
</g><g
     id="g4585">
	<g
   id="g4583">
		<path
   id="path4581"
   d="m 469.52,382.635 -44.286,-32.093 c 0.745,-14.97 -0.889,-36.862 -2.226,-51.227 -0.352,-3.78 0.878,-7.536 3.393,-10.381 2.515,-2.844 6.096,-4.532 9.891,-4.642 8.816,-0.256 16.422,-6.258 18.722,-14.77 l 2.819,-10.434 c 0.634,-2.346 0.226,-4.851 -1.118,-6.875 -1.344,-2.024 -3.496,-3.37 -5.903,-3.696 l -13.232,-1.788 c -6.344,-8.176 -16.717,-12.133 -26.895,-10.263 l -0.271,0.05 c 2.37,3.906 4.833,8.858 6.498,12.919 2.041,4.975 8.252,20.113 -1.07,28.877 -9.063,8.521 -23.569,2.561 -34.377,-3.613 -2.149,9.329 -4.011,17.612 -4.011,17.612 l -79.611,50.118 c -4.708,2.964 -8.588,6.972 -11.4,11.647 -11.553,1.872 -20.531,0.258 -30.921,-4.019 -9.291,-4.062 -18.541,-10.261 -26.156,-18.237 -1.355,-1.414 -3.568,-1.704 -5.262,-0.588 -1.91,1.258 -2.439,3.825 -1.181,5.735 6.225,9.459 15.048,18.562 25.673,25.694 9.437,6.089 18.397,9.916 30.388,11.669 -1.663,6.042 -0.735,14.973 0.294,19.822 2.506,11.809 10.11,29.914 17.366,41.127 l -0.327,33.841 c -0.061,6.3 4.998,11.458 11.298,11.518 0.039,0 0.075,0 0.113,0 6.25,0 11.347,-5.036 11.407,-11.299 l 0.289,-29.942 c 8.416,-11.069 14.315,-29.514 15.684,-42.891 0.792,-7.734 -0.007,-16.174 -3.542,-24.199 -1.365,-3.098 0.04,-6.714 3.138,-8.079 3.096,-1.365 6.714,0.041 8.078,3.137 3.079,6.989 4.674,14.196 4.929,21.161 24.135,-7.117 49.972,-14.933 64.265,-19.408 l 44.151,31.997 c 5.101,3.697 12.235,2.558 15.933,-2.543 3.701,-5.105 2.564,-12.238 -2.54,-15.937 z"
   inkscape:connector-curvature="0" />
	</g>
</g><g
     id="g4591">
	<g
   id="g4589">
		<path
   id="path4587"
   d="m 398.636,238.832 c -2.821,-3.002 -10.68,-1.876 -16.514,3.609 -5.836,5.487 -7.441,13.259 -4.62,16.259 2.821,3 24.95,17.059 30.786,11.573 5.835,-5.487 -6.831,-28.44 -9.652,-31.441 z"
   inkscape:connector-curvature="0" />
	</g>
</g><g
     id="g4597">
	<g
   id="g4595">
		<ellipse
   id="ellipse4593"
   ry="12.07"
   rx="52.460999"
   cy="97.720001"
   cx="459.92001"
   transform="matrix(0.9922,-0.1245,0.1245,0.9922,-8.5879,58.0214)" />
	</g>
</g><g
     id="g4599">
</g><g
     id="g4601">
</g><g
     id="g4603">
</g><g
     id="g4605">
</g><g
     id="g4607">
</g><g
     id="g4609">
</g><g
     id="g4611">
</g><g
     id="g4613">
</g><g
     id="g4615">
</g><g
     id="g4617">
</g><g
     id="g4619">
</g><g
     id="g4621">
</g><g
     id="g4623">
</g><g
     id="g4625">
</g><g
     id="g4627">
</g></g></svg>