<?xml version="1.0" encoding="UTF-8" standalone="no"?>
<!-- Generator: Adobe Illustrator 16.0.0, SVG Export Plug-In . SVG Version: 6.00 Build 0)  -->

<svg
   xmlns:dc="http://purl.org/dc/elements/1.1/"
   xmlns:cc="http://creativecommons.org/ns#"
   xmlns:rdf="http://www.w3.org/1999/02/22-rdf-syntax-ns#"
   xmlns:svg="http://www.w3.org/2000/svg"
   xmlns="http://www.w3.org/2000/svg"
   xmlns:sodipodi="http://sodipodi.sourceforge.net/DTD/sodipodi-0.dtd"
   xmlns:inkscape="http://www.inkscape.org/namespaces/inkscape"
   version="1.1"
   id="Capa_1"
   x="0px"
   y="0px"
   width="612px"
   height="612px"
   viewBox="0 0 612 612"
   style="enable-background:new 0 0 612 612;"
   xml:space="preserve"
   sodipodi:docname="004-social-2.svg"
   inkscape:version="0.92.1 r15371"><metadata
   id="metadata45"><rdf:RDF><cc:Work
       rdf:about=""><dc:format>image/svg+xml</dc:format><dc:type
         rdf:resource="http://purl.org/dc/dcmitype/StillImage" /><dc:title></dc:title></cc:Work></rdf:RDF></metadata><defs
   id="defs43" /><sodipodi:namedview
   pagecolor="#ffffff"
   bordercolor="#666666"
   borderopacity="1"
   objecttolerance="10"
   gridtolerance="10"
   guidetolerance="10"
   inkscape:pageopacity="0"
   inkscape:pageshadow="2"
   inkscape:window-width="1366"
   inkscape:window-height="705"
   id="namedview41"
   showgrid="false"
   inkscape:zoom="0.38562092"
   inkscape:cx="306"
   inkscape:cy="306"
   inkscape:window-x="-8"
   inkscape:window-y="-8"
   inkscape:window-maximized="1"
   inkscape:current-layer="Capa_1" />
<g
   id="g8">
	<g
   id="g6">
		
		<path
   d="M612,306C612,137.004,474.995,0,306,0C137.004,0,0,137.004,0,306c0,168.995,137.004,306,306,306    C474.995,612,612,474.995,612,306z M27.818,306C27.818,152.36,152.36,27.818,306,27.818S584.182,152.36,584.182,306    S459.64,584.182,306,584.182S27.818,459.64,27.818,306z"
   id="path4" />
	</g>
</g>
<g
   id="g10">
</g>
<g
   id="g12">
</g>
<g
   id="g14">
</g>
<g
   id="g16">
</g>
<g
   id="g18">
</g>
<g
   id="g20">
</g>
<g
   id="g22">
</g>
<g
   id="g24">
</g>
<g
   id="g26">
</g>
<g
   id="g28">
</g>
<g
   id="g30">
</g>
<g
   id="g32">
</g>
<g
   id="g34">
</g>
<g
   id="g36">
</g>
<g
   id="g38">
</g>
<g
   style="fill:#ffff00"
   id="g4524"
   transform="translate(-686.8655,49.609079)">
</g><g
   style="fill:#ffff00"
   id="g4526"
   transform="translate(-686.8655,49.609079)">
</g><g
   style="fill:#ffff00"
   id="g4528"
   transform="translate(-686.8655,49.609079)">
</g><g
   style="fill:#ffff00"
   id="g4530"
   transform="translate(-686.8655,49.609079)">
</g><g
   style="fill:#ffff00"
   id="g4532"
   transform="translate(-686.8655,49.609079)">
</g><g
   style="fill:#ffff00"
   id="g4534"
   transform="translate(-686.8655,49.609079)">
</g><g
   style="fill:#ffff00"
   id="g4536"
   transform="translate(-686.8655,49.609079)">
</g><g
   style="fill:#ffff00"
   id="g4538"
   transform="translate(-686.8655,49.609079)">
</g><g
   style="fill:#ffff00"
   id="g4540"
   transform="translate(-686.8655,49.609079)">
</g><g
   style="fill:#ffff00"
   id="g4542"
   transform="translate(-686.8655,49.609079)">
</g><g
   style="fill:#ffff00"
   id="g4544"
   transform="translate(-686.8655,49.609079)">
</g><g
   style="fill:#ffff00"
   id="g4546"
   transform="translate(-686.8655,49.609079)">
</g><g
   style="fill:#ffff00"
   id="g4548"
   transform="translate(-686.8655,49.609079)">
</g><g
   style="fill:#ffff00"
   id="g4550"
   transform="translate(-686.8655,49.609079)">
</g><g
   style="fill:#ffff00"
   id="g4552"
   transform="translate(-686.8655,49.609079)">
</g><path
   inkscape:connector-curvature="0"
   style="fill:#000000;fill-opacity:1;stroke:#0b61a4;stroke-width:1.28503942;stroke-miterlimit:4;stroke-dasharray:3.85511827, 3.85511827;stroke-dashoffset:0;stroke-opacity:1"
   d="m 281.37576,193.62464 c -5.5229,-0.005 -11.0441,0.089 -16.5566,0.38671 -9.07,0.484 -17.4335,1.70686 -23.4375,9.38086 -2.884,3.686 -2.4676,7.38136 2.0214,8.19336 14.536,2.619 18.0499,11.29573 18.5879,21.17773 0.83,15.429 1.176,25.55199 0.875,41 -0.11,5.912 -1.9615,17.32313 -3.9785,22.95313 -1.907,5.365 -6.3315,6.49639 -11.0215,3.27539 -3.211,-2.199 -6.2597,-4.8985 -8.6777,-7.9375 -18.231,-22.829 -32.07215,-48.25847 -42.99415,-75.23047 -3.842,-9.47 -10.0645,-13.3195 -19.1875,-13.8125 -0.951,-0.051 -58.12522,-1.24387 -61.19922,-0.0469 -4.931,1.919 -6.37517,7.49408 -4.82617,13.33008 0.466,1.743 17.80664,38.64348 18.68164,40.39648 17.121,34.28901 35.87324,67.59834 59.61524,97.90234 14.946,19.079 32.20156,35.43978 53.80856,47.00977 25.493,13.659 52.8577,16.80643 81.0977,15.27344 9.782,-0.538 15.339,-6.10393 15.959,-14.83594 0.119,-1.66899 2.6643,-21.22197 5.6113,-28.66797 3.449,-8.669 10.6942,-9.91906 18.0762,-4.28906 3.129,2.382 6.031,5.11003 8.75,7.95703 9.024,9.44401 17.5649,19.36987 26.9629,28.42188 8.45,8.129 18.943,12.28194 30.914,12.33594 2.301,0.01 46.8264,1.286 55.9414,0 14.489,-2.054 19.2814,-13.58704 11.5254,-25.83203 -6.132,-9.681 -13.2952,-18.87652 -21.0332,-27.35352 -10.648,-11.651 -22.419,-22.26347 -33.414,-33.60547 -6.907,-7.127 -7.235,-11.92542 -2.5,-20.48242 1.324,-2.382 2.7482,-4.72873 4.3632,-6.92773 12.664,-17.263 25.629,-34.30748 38.002,-51.77149 7.71,-10.886 14.9101,-22.20925 17.9121,-35.53125 1.287,-5.685 -0.8957,-10.16401 -6.3887,-11.91601 -3.385,-1.076 -7.1347,-1.41364 -10.7207,-1.43164 -20.22,-0.064 -40.4401,-0.046 -60.6601,0 -10.757,0.027 -13.7947,2.19726 -17.7637,12.19726 -7.674,19.38 -16.5884,38.17768 -28.5234,55.30469 -6.569,9.416 -13.5679,18.68578 -21.5059,26.92578 -6.251,6.487 -12.3637,4.23291 -14.3438,-4.74609 -1.4149,-6.442 -1.8984,-13.22095 -1.8164,-19.83594 0.192,-16.85301 1.0038,-33.70636 1.3868,-50.56836 0.092,-3.924 -0.2454,-7.91106 -0.9024,-11.78906 -1.269,-7.518 -5.3927,-12.92061 -13.0937,-14.59961 -5.904,-1.287 -11.9367,-1.76922 -17.9317,-1.82422 -9.1987,-0.0913 -18.4103,-0.37789 -27.6152,-0.38672 z"
   id="path4610"
   sodipodi:nodetypes="ccccccccccccccccccccccccccccccccccccccccccccc" /></svg>